<?xml version="1.0" encoding="UTF-8"?>
<!DOCTYPE svg PUBLIC "-//W3C//DTD SVG 1.1//EN" "http://www.w3.org/Graphics/SVG/1.1/DTD/svg11.dtd">
<!-- Creator: CorelDRAW -->
<svg xmlns="http://www.w3.org/2000/svg" xml:space="preserve" width="180.622mm" height="180.622mm" version="1.1" style="shape-rendering:geometricPrecision; text-rendering:geometricPrecision; image-rendering:optimizeQuality; fill-rule:evenodd; clip-rule:evenodd"
viewBox="0 0 18062 18062"
 xmlns:xlink="http://www.w3.org/1999/xlink">
 <defs>
  <style type="text/css">
   <![CDATA[
    .fil0 {fill:black}
   ]]>
  </style>
 </defs>
 <g id="Layer_x0020_1">
  <metadata id="CorelCorpID_0Corel-Layer"/>
  <path class="fil0" d="M9682 15085c-127,-2060 -555,-5417 -1936,-8809 -1529,1146 -1441,3543 -1441,3558 0,117 -74,206 -191,235 -118,15 -221,-59 -250,-162 -515,-2014 -15,-3646 265,-4352 -1824,323 -3309,3338 -3324,3382 -44,88 -132,132 -235,118 -103,-15 -176,-89 -176,-192 -427,-3337 2161,-4396 3161,-4675 -838,-677 -2426,-397 -2441,-397 -88,14 -191,-30 -235,-118 -44,-88 -29,-191 29,-265 1471,-1529 3162,-823 3882,-411 59,-824 427,-2618 2500,-3000 88,-15 191,29 235,118 44,88 30,191 -44,264 -15,15 -1117,1162 -1029,2250 794,-676 3102,-2235 5646,-44 74,59 103,162 59,264 -44,89 -132,148 -235,133 -30,0 -3353,-456 -4662,897 736,147 2383,647 3765,2191 73,88 73,206 0,294 -74,88 -206,103 -294,29 -15,-15 -2000,-1441 -3823,-750 359,1022 1989,5844 2636,9399 -230,-14 -458,-21 -681,-21 -383,0 -781,20 -1181,64z"/>
  <path class="fil0" d="M15495 18068l-9264 0c-117,0 -220,-103 -220,-220 0,-1324 2132,-2353 4852,-2353 2720,0 4853,1029 4853,2353 0,117 -103,220 -221,220z"/>
 </g>
</svg>
